<svg width="113" height="113" viewBox="0 0 113 113" fill="none" xmlns="http://www.w3.org/2000/svg">
<g clip-path="url(#clip0_136_36)">
<rect width="113" height="113" rx="50" fill="white"/>
<path d="M62.6562 22.3125C66.6562 22.25 69.9375 22.9688 72.5 24.4688C75.125 25.9688 77.25 27.75 78.875 29.8125C80.5 31.875 81.75 33.9688 82.625 36.0938C83.5 38.1562 84.1875 39.7812 84.6875 40.9688C84.8125 41.2812 85.0625 41.6875 85.4375 42.1875C85.75 42.625 86.1875 43.1562 86.75 43.7812C87.375 44.3438 88.1562 45 89.0938 45.75C87.1562 45.8125 85.4375 45.875 83.9375 45.9375C82.4375 45.9375 81.1562 45.9688 80.0938 46.0312C78.9062 46.0938 77.8438 46.1562 76.9062 46.2188C75.9688 46.2812 74.8125 46.375 73.4375 46.5C72.1875 46.625 70.6562 46.75 68.8438 46.875C67.0312 47 64.8125 47.1875 62.1875 47.4375C63.75 45.5625 64.9688 43.9062 65.8438 42.4688C66.7812 40.9688 67.4688 39.6562 67.9062 38.5312C68.4062 37.3438 68.6875 36.3125 68.75 35.4375C68.875 34.5625 68.8438 33.8125 68.6562 33.1875C68.2812 31.75 67.3125 30.7188 65.75 30.0938C61.25 28.8437 57.3125 29.8438 53.9375 33.0938C50.625 36.2812 48.25 41.5312 46.8125 48.8438C46.125 52.4688 45.4688 56.25 44.8438 60.1875C44.2812 64.0625 44.0625 67.625 44.1875 70.875C44.3125 74.0625 44.9375 76.6562 46.0625 78.6562C47.1875 80.6562 49.125 81.5938 51.875 81.4688C54.5625 81.3438 56.8438 80.9062 58.7188 80.1562C60.5938 79.3438 62.0938 78.4062 63.2188 77.3438C64.3438 76.2188 65.125 75.0312 65.5625 73.7812C66.0625 72.4688 66.25 71.25 66.125 70.125C65.875 69.25 65.2188 68.3125 64.1562 67.3125C63.2188 66.4375 61.8125 65.4688 59.9375 64.4062C58.0625 63.2812 55.375 62.125 51.875 60.9375C55.1875 60.75 57.9062 60.625 60.0312 60.5625C62.2188 60.4375 63.9375 60.3125 65.1875 60.1875C66.6875 60.0625 67.8438 59.9688 68.6562 59.9062C69.4062 59.8438 70.5 59.7812 71.9375 59.7188C73.1875 59.6562 74.7812 59.625 76.7188 59.625C78.7188 59.625 81.2188 59.5938 84.2188 59.5312C83.0938 60.6562 82.2188 61.6875 81.5938 62.625C81.2812 63.125 81 63.5625 80.75 63.9375C80.5 64.5625 80.4062 65.8438 80.4688 67.7812C80.4688 69.4062 80.5938 71.8125 80.8438 75C81.0938 78.125 81.5625 82.4062 82.25 87.8438L69.7812 89.5312L70.3438 76.875C68.9062 80.3125 67.0938 82.875 64.9062 84.5625C62.7812 86.25 60.75 87.4375 58.8125 88.125C56.5 88.9375 54.0938 89.3125 51.5938 89.25C48.3438 88.9375 45.0938 88.1875 41.8438 87C38.5938 85.8125 35.7188 84 33.2188 81.5625C30.7188 79.0625 28.7812 75.8438 27.4062 71.9062C26.0938 67.9688 25.6875 63.0938 26.1875 57.2812C26.75 51.4688 28.125 46.4062 30.3125 42.0938C32.5625 37.7188 35.3438 34.0938 38.6562 31.2188C41.9688 28.3438 45.6875 26.1875 49.8125 24.75C54 23.25 58.2812 22.4375 62.6562 22.3125Z" fill="black"/>
</g>
<defs>
<clipPath id="clip0_136_36">
<rect width="113" height="113" rx="50" fill="white"/>
</clipPath>
</defs>
</svg>
